<svg width="100" height="101" viewBox="0 0 100 101" fill="none" xmlns="http://www.w3.org/2000/svg">
<path d="M44.6649 0.465368C39.2301 1.02671 33.1064 2.81279 28.0798 5.26228C22.4919 7.99244 18.4094 10.9778 13.8932 15.6471C6.85091 22.9445 2.41121 31.6453 0.574099 41.775C-0.191366 45.985 -0.191366 54.4051 0.574099 58.6152C1.95194 66.1678 4.8607 73.108 9.24937 79.2572C11.2651 82.0894 15.7048 86.8098 18.4605 89.0297C26.0641 95.1534 35.1476 98.8786 45.0731 99.9503C46.6041 100.103 56.9378 100.205 72.094 100.205C96.3848 100.205 96.6655 100.205 97.7371 99.6696C98.9108 99.1083 99.8804 97.5773 99.8804 96.2761C99.8804 95.1023 98.9364 93.6224 97.8392 93.0611C96.8696 92.5508 96.3848 92.5508 72.2727 92.5508C47.8033 92.5508 45.3538 92.4742 41.1948 91.6322C36.1172 90.5861 29.8149 87.8304 25.3752 84.692C22.2623 82.4977 17.5674 77.8028 15.3731 74.6899C8.58597 65.0961 6.05993 53.0783 8.43287 41.5198C9.50452 36.3146 12.2347 30.0889 15.3476 25.7002C17.5674 22.5873 22.2878 17.8925 25.3752 15.6981C34.969 8.911 46.9868 6.38496 58.5453 8.7579C63.7505 9.82955 69.9763 12.5597 74.3649 15.6726C77.4778 17.8925 82.1727 22.6128 84.367 25.7002C89.3425 32.717 92.2258 41.7239 92.2258 50.1951C92.2258 57.9518 89.7763 66.3719 85.6938 72.6997C83.6271 75.9402 83.3974 76.8077 84.2649 78.5173C85.209 80.3799 87.5309 81.0943 89.4191 80.0737C90.5673 79.4613 92.583 76.5015 94.6242 72.368C103.121 55.2471 101.131 34.9878 89.4446 19.7041C87.8626 17.6118 83.8312 13.4783 81.5093 11.5391C71.5582 3.24656 57.7543 -0.912469 44.6649 0.465368Z" fill="#B73E3E"/>
<path d="M47.1909 23.5059C44.869 24.603 43.4911 26.7208 43.4911 29.2724C43.4911 32.819 46.3234 35.6512 49.87 35.6512C53.3912 35.6512 56.2234 32.819 56.2489 29.2724C56.2489 24.6285 51.3754 21.5157 47.1909 23.5059Z" fill="#B73E3E"/>
<path d="M26.2682 44.4286C23.9463 45.5258 22.5684 47.6436 22.5684 50.1951C22.5684 53.7418 25.4006 56.574 28.9473 56.574C32.4684 56.574 35.3007 53.7418 35.3262 50.1951C35.3262 45.5513 30.4527 42.4384 26.2682 44.4286Z" fill="#B73E3E"/>
<path d="M68.1137 44.4286C65.7918 45.5258 64.4139 47.6436 64.4139 50.1951C64.4139 53.7418 67.2462 56.574 70.7928 56.574C74.314 56.574 77.1462 53.7418 77.1717 50.1951C77.1717 45.5513 72.2982 42.4384 68.1137 44.4286Z" fill="#B73E3E"/>
<path d="M47.1909 65.3513C44.869 66.4484 43.4911 68.5662 43.4911 71.1178C43.4911 74.6644 46.3234 77.4966 49.87 77.4966C53.3912 77.4966 56.2234 74.6644 56.2489 71.1178C56.2489 66.4739 51.3754 63.3611 47.1909 65.3513Z" fill="#B73E3E"/>
</svg>
