<svg xmlns="http://www.w3.org/2000/svg" width="25" height="25" fill="none"><path stroke="#e9e9e9" stroke-linecap="round" stroke-linejoin="round" stroke-width="1.5" d="M19.625 7.85h-3.99c-.75 0-1.447-.38-1.833-1l-.677-1.09c-.385-.62-1.083-1-1.833-1H5.01c-1.187 0-2.145.92-2.145 2.06V17.8c0 1.33 1.125 2.41 2.51 2.41h14.25c1.385 0 2.51-1.08 2.51-2.41v-7.55c0-1.32-1.125-2.4-2.51-2.4Z"/><path stroke="#e9e9e9" stroke-linecap="round" stroke-linejoin="round" stroke-width="1.5" d="M19.625 7.85H2.865v9.97c0 1.33 1.125 2.41 2.51 2.41h14.25c1.385 0 2.51-1.08 2.51-2.41v-7.55c0-1.34-1.125-2.42-2.51-2.42Z"/></svg>