<svg xmlns="http://www.w3.org/2000/svg" width="25" height="25" fill="none"><path stroke="#e9e9e9" stroke-linecap="round" stroke-linejoin="round" stroke-width="1.5" d="M15.396 22.635H9.604v-6.198c0-.572.469-1.041 1.042-1.041h3.708c.573 0 1.042.469 1.042 1.041v6.198Z"/><path stroke="#e9e9e9" stroke-linecap="round" stroke-linejoin="round" stroke-width="1.5" d="M22.136 12.365v6.99c0 1.812-1.396 3.28-3.125 3.28H5.99c-1.73 0-3.125-1.468-3.125-3.28v-6.99c0-.98.406-1.896 1.125-2.521l6.51-5.719a2.995 2.995 0 0 1 4 0l6.51 5.719a3.323 3.323 0 0 1 1.125 2.52Z"/></svg>