<svg xmlns="http://www.w3.org/2000/svg" width="40" height="40" fill="none"><path fill="#B73E3E" d="M18.008.967c-2.08.215-4.424.898-6.348 1.836C9.521 3.848 7.96 4.99 6.23 6.777c-2.695 2.793-4.394 6.123-5.097 10-.293 1.612-.293 4.834 0 6.446.527 2.89 1.64 5.547 3.32 7.9.772 1.084 2.47 2.89 3.526 3.74 2.91 2.344 6.386 3.77 10.185 4.18.586.059 4.541.098 10.342.098 9.297 0 9.404 0 9.814-.206.45-.214.82-.8.82-1.298 0-.45-.36-1.016-.78-1.23-.372-.196-.557-.196-9.786-.196-9.365 0-10.303-.03-11.894-.352-1.944-.4-4.356-1.455-6.055-2.656-1.191-.84-2.988-2.637-3.828-3.828A16.312 16.312 0 0 1 4.14 16.68c.41-1.992 1.455-4.375 2.646-6.055.85-1.191 2.656-2.988 3.838-3.828A16.312 16.312 0 0 1 23.32 4.14c1.992.41 4.375 1.455 6.055 2.646 1.191.85 2.988 2.656 3.828 3.838 1.904 2.685 3.008 6.133 3.008 9.375 0 2.969-.938 6.191-2.5 8.613-.791 1.24-.879 1.573-.547 2.227.361.713 1.25.986 1.973.596.44-.235 1.21-1.368 1.992-2.95 3.252-6.552 2.49-14.306-1.982-20.156-.606-.8-2.149-2.383-3.038-3.125C28.301 2.031 23.018.44 18.008.967Z"/><path fill="#B73E3E" d="M18.975 9.785c-.89.42-1.416 1.23-1.416 2.207A2.43 2.43 0 0 0 20 14.434a2.442 2.442 0 0 0 2.441-2.442c0-1.777-1.865-2.969-3.466-2.207ZM10.967 17.793c-.889.42-1.416 1.23-1.416 2.207a2.43 2.43 0 0 0 2.441 2.441A2.442 2.442 0 0 0 14.434 20c0-1.777-1.866-2.969-3.467-2.207ZM26.982 17.793c-.888.42-1.416 1.23-1.416 2.207a2.43 2.43 0 0 0 2.442 2.441A2.442 2.442 0 0 0 30.449 20c0-1.777-1.865-2.969-3.467-2.207ZM18.975 25.8c-.89.42-1.416 1.231-1.416 2.208A2.43 2.43 0 0 0 20 30.449a2.442 2.442 0 0 0 2.441-2.441c0-1.777-1.865-2.969-3.466-2.207Z"/></svg>