<svg xmlns="http://www.w3.org/2000/svg" width="25" height="25" fill="none"><path stroke="#e9e9e9" stroke-linecap="round" stroke-linejoin="round" stroke-width="1.5" d="M12.5 15.177a2.677 2.677 0 1 0 0-5.354 2.677 2.677 0 0 0 0 5.354Z"/><path stroke="#e9e9e9" stroke-linecap="round" stroke-linejoin="round" stroke-width="1.5" d="M21.375 8.615 20.302 6.76a1.604 1.604 0 0 0-2.198-.583l-.531.302a1.606 1.606 0 0 1-2.406-1.396V4.47c0-.886-.72-1.604-1.604-1.604h-2.146c-.886 0-1.604.718-1.604 1.604v.614c0 1.24-1.334 2.01-2.407 1.396l-.531-.302a1.613 1.613 0 0 0-2.198.583L3.604 8.615c-.448.77-.177 1.75.583 2.197l.532.303c1.073.614 1.073 2.166 0 2.78l-.532.303a1.604 1.604 0 0 0-.583 2.198l1.073 1.854a1.604 1.604 0 0 0 2.198.583l.531-.302a1.606 1.606 0 0 1 2.407 1.396v.615c0 .885.718 1.604 1.604 1.604h2.146c.885 0 1.604-.719 1.604-1.604v-.615c0-1.24 1.333-2.01 2.406-1.396l.531.302c.771.448 1.75.177 2.198-.583l1.073-1.854c.448-.771.177-1.75-.583-2.198l-.532-.302c-1.073-.615-1.073-2.167 0-2.781l.532-.303a1.606 1.606 0 0 0 .583-2.197Z" clip-rule="evenodd"/></svg>