<svg xmlns="http://www.w3.org/2000/svg" width="25" height="25" fill="none"><path stroke="#e9e9e9" stroke-linecap="round" stroke-linejoin="round" stroke-width="1.5" d="M12.344 21.875c-.531.031-1.052-.156-1.51-.364-1.022-.448-1.813-1.271-2.094-2.323-.032-.115-.053-.22-.073-.313a3.637 3.637 0 0 1-.084-.646c0-.99.386-1.958 1.094-2.729l2.146-2.406.531-.594.531.594 2.146 2.406c.709.77 1.094 1.74 1.094 2.73 0 .166-.031.374-.083.645a2.31 2.31 0 0 0-.073.313c-.281 1.052-1.073 1.875-2.094 2.323-.49.197-1 .322-1.531.364Z"/><path stroke="#e9e9e9" stroke-linecap="round" stroke-linejoin="round" stroke-width="1.5" d="M13.24 4.438c-.334-.625-.573-1.094-.573-1.094a1.003 1.003 0 0 0-.865-.48c-.27 0-.552.126-.73.313L6.439 8.385c-1.521 1.657-2.355 3.75-2.355 5.896 0 .354.063.802.188 1.386.062.208.104.416.167.666.885 3.302 4.104 5.563 7.802 5.792 3.906.02 7.458-2.333 8.354-5.781.073-.24.125-.48.187-.677.105-.542.167-.98.167-1.323v-.136c0-2.26-1.146-4.812-2.208-6.458l-.99-1.51c-.156-.26-.458-.407-.792-.417-.323 0-.625.146-.791.396l-1.125 1.593c-.021 0-1.104-2.052-1.802-3.374Z"/></svg>